<svg width="57" height="49" viewBox="0 0 57 49" fill="none" xmlns="http://www.w3.org/2000/svg">
<path fill-rule="evenodd" clip-rule="evenodd" d="M20.6367 0C16.7876 0 13.5323 2.48122 12.3213 5.913C10.6574 5.99579 9.05083 6.54566 7.68675 7.49925C6.32267 8.45283 5.25663 9.77131 4.61149 11.3027C3.98102 12.819 3.78899 14.481 4.05714 16.1005C2.51576 17.3297 1.34142 18.9562 0.661503 20.8035C-0.0184112 22.6509 -0.177932 24.6487 0.200246 26.5801C0.694191 29.0777 2.05916 31.3204 4.05321 32.9105C3.82569 34.315 3.9427 35.7535 4.39424 37.103C4.84578 38.4525 5.61842 39.673 6.64609 40.6599C8.18421 42.1232 10.1998 42.9846 12.3233 43.0863C13.6994 46.9865 17.6231 49.4716 21.7925 48.9248C24.7707 48.5328 27.2142 46.6651 28.4998 44.1387C29.7855 46.667 32.229 48.5328 35.2071 48.9248C39.3746 49.4716 43.3023 46.9845 44.6764 43.0863C46.7999 42.9846 48.8155 42.1232 50.3536 40.6599C51.381 39.6732 52.1534 38.453 52.6049 37.1039C53.0565 35.7547 53.1737 34.3166 52.9465 32.9125C54.9405 31.3224 56.3055 29.0797 56.7994 26.582C57.178 24.6504 57.0187 22.6522 56.3387 20.8044C55.6588 18.9566 54.4842 17.3298 52.9425 16.1005C53.1981 14.511 53.0369 12.853 52.3882 11.3027C51.743 9.77131 50.677 8.45283 49.3129 7.49925C47.9488 6.54566 46.3422 5.99579 44.6783 5.913C43.4674 2.48318 40.212 0 36.363 0C32.9229 0 29.9624 1.99125 28.4998 4.86053C27.0373 1.99125 24.0768 0 20.6367 0ZM20.6367 1.95989C24.4483 1.95989 27.5169 5.01733 27.5169 8.81952C27.5162 8.84107 27.5162 8.86264 27.5169 8.8842V40.1778C27.5185 41.7491 26.9783 43.2731 25.9867 44.4944C24.9952 45.7157 23.6126 46.5601 22.0709 46.8858C20.5291 47.2116 18.9219 46.999 17.5187 46.2836C16.1155 45.5683 15.0016 44.3938 14.3638 42.9569C14.5958 42.9138 14.8297 42.8785 15.0617 42.8197C15.3137 42.7527 15.5288 42.5885 15.6595 42.3634C15.7902 42.1383 15.8258 41.8706 15.7585 41.6193C15.6913 41.368 15.5266 41.1536 15.3008 41.0233C15.075 40.893 14.8066 40.8575 14.5545 40.9245C13.4107 41.2288 12.2076 41.2342 11.0611 40.9404C9.91455 40.6465 8.86323 40.0633 8.00838 39.2469C7.31512 38.5801 6.77028 37.7753 6.40926 36.885C6.04824 35.9946 5.87911 35.0384 5.91285 34.0786C6.57729 34.4177 7.26925 34.7156 8.00838 34.9135C8.26046 34.9811 8.52914 34.9461 8.75531 34.8161C8.98148 34.6862 9.14662 34.472 9.2144 34.2207C9.28218 33.9694 9.24704 33.7015 9.11672 33.476C8.9864 33.2505 8.77157 33.0859 8.51949 33.0183C7.00639 32.6168 5.62758 31.8214 4.52437 30.7136C3.42117 29.6058 2.63324 28.2255 2.24135 26.7141C1.84946 25.2027 1.86771 23.6146 2.29421 22.1126C2.72071 20.6105 3.54014 19.2486 4.6685 18.1662C5.10294 19.1795 5.7084 20.1301 6.51831 20.9375C6.60898 21.0311 6.71744 21.1058 6.83736 21.1571C6.95727 21.2085 7.08625 21.2355 7.21676 21.2367C7.34727 21.2378 7.47669 21.213 7.59749 21.1637C7.71828 21.1145 7.82802 21.0417 7.92031 20.9497C8.0126 20.8577 8.08558 20.7483 8.135 20.6278C8.18442 20.5074 8.20929 20.3784 8.20816 20.2482C8.20702 20.1181 8.17991 19.9895 8.1284 19.87C8.07689 19.7504 8.00201 19.6423 7.90813 19.5519C6.99912 18.6464 6.36271 17.5051 6.07102 16.2574C5.77934 15.0097 5.84405 13.7055 6.25782 12.4926C6.6716 11.2797 7.41788 10.2066 8.4121 9.39492C9.40631 8.58327 10.6087 8.06551 11.883 7.90033C11.8495 8.20607 11.7906 8.50397 11.7906 8.81952C11.7906 9.07942 11.8941 9.32867 12.0785 9.51245C12.2628 9.69622 12.5128 9.79947 12.7735 9.79947C13.0342 9.79947 13.2842 9.69622 13.4685 9.51245C13.6528 9.32867 13.7564 9.07942 13.7564 8.81952C13.7564 5.01733 16.825 1.95989 20.6367 1.95989ZM36.363 1.95989C40.1747 1.95989 43.2433 5.01733 43.2433 8.81952C43.2433 9.07942 43.3469 9.32867 43.5312 9.51245C43.7155 9.69622 43.9655 9.79947 44.2262 9.79947C44.4869 9.79947 44.7369 9.69622 44.9212 9.51245C45.1055 9.32867 45.2091 9.07942 45.2091 8.81952C45.2091 8.50594 45.1501 8.20607 45.1167 7.90033C46.3918 8.06411 47.5953 8.58109 48.5904 9.39256C49.5856 10.204 50.3326 11.2775 50.7466 12.491C51.1605 13.7045 51.2249 15.0094 50.9324 16.2575C50.6398 17.5057 50.002 18.647 49.0915 19.5519C48.9977 19.6423 48.9228 19.7504 48.8713 19.87C48.8198 19.9895 48.7926 20.1181 48.7915 20.2482C48.7904 20.3784 48.8152 20.5074 48.8647 20.6278C48.9141 20.7483 48.9871 20.8577 49.0794 20.9497C49.1716 21.0417 49.2814 21.1145 49.4022 21.1637C49.523 21.213 49.6524 21.2378 49.7829 21.2367C49.9134 21.2355 50.0424 21.2085 50.1623 21.1571C50.2822 21.1058 50.3907 21.0311 50.4814 20.9375C51.2913 20.1301 51.8967 19.1795 52.3312 18.1662C53.4595 19.2486 54.279 20.6105 54.7055 22.1126C55.132 23.6146 55.1502 25.2027 54.7583 26.7141C54.3664 28.2255 53.5785 29.6058 52.4753 30.7136C51.3721 31.8214 49.9933 32.6168 48.4802 33.0183C48.3554 33.0518 48.2384 33.1094 48.1359 33.188C48.0334 33.2665 47.9475 33.3644 47.8829 33.476C47.7526 33.7015 47.7175 33.9694 47.7853 34.2207C47.853 34.472 48.0182 34.6862 48.2444 34.8161C48.4705 34.9461 48.7392 34.9811 48.9913 34.9135C49.7304 34.7175 50.4224 34.4177 51.0868 34.0786C51.1206 35.0384 50.9514 35.9946 50.5904 36.885C50.2294 37.7753 49.6846 38.5801 48.9913 39.2469C48.1364 40.0633 47.0851 40.6465 45.9386 40.9404C44.7921 41.2342 43.589 41.2288 42.4452 40.9245C42.195 40.8624 41.9303 40.9007 41.7082 41.0313C41.4862 41.1618 41.3244 41.3742 41.2579 41.6225C41.1913 41.8709 41.2254 42.1353 41.3526 42.3589C41.4798 42.5825 41.6901 42.7473 41.938 42.8178C42.17 42.8805 42.4039 42.9138 42.6359 42.955C41.9981 44.3917 40.8844 45.5661 39.4814 46.2815C38.0784 46.9968 36.4714 47.2096 34.9298 46.884C33.3881 46.5585 32.0056 45.7146 31.0139 44.4936C30.0222 43.2726 29.4816 41.7489 29.4827 40.1778V8.81952C29.4827 5.02125 32.5513 1.95989 36.363 1.95989ZM20.5384 3.91979C20.2777 3.93278 20.0329 4.04849 19.8577 4.24145C19.6826 4.43442 19.5916 4.68883 19.6046 4.94873C19.6176 5.20863 19.7337 5.45272 19.9272 5.62731C20.1208 5.80189 20.376 5.89267 20.6367 5.87968C22.2761 5.87968 23.5853 7.18301 23.5853 8.81952C23.5853 9.07942 23.6889 9.32867 23.8732 9.51245C24.0576 9.69622 24.3076 9.79947 24.5682 9.79947C24.8289 9.79947 25.0789 9.69622 25.2633 9.51245C25.4476 9.32867 25.5511 9.07942 25.5511 8.81952C25.5511 6.12467 23.3396 3.91979 20.6367 3.91979C20.6039 3.91815 20.5711 3.91815 20.5384 3.91979ZM36.363 3.91979C35.0609 3.92392 33.8133 4.44147 32.8925 5.35945C31.9718 6.27744 31.4527 7.5213 31.4485 8.81952C31.4485 9.07942 31.5521 9.32867 31.7364 9.51245C31.9207 9.69622 32.1707 9.79947 32.4314 9.79947C32.6921 9.79947 32.9421 9.69622 33.1264 9.51245C33.3108 9.32867 33.4143 9.07942 33.4143 8.81952C33.4143 7.18301 34.7235 5.87968 36.363 5.87968C36.6237 5.87968 36.8737 5.77643 37.058 5.59266C37.2424 5.40888 37.3459 5.15963 37.3459 4.89973C37.3459 4.63983 37.2424 4.39058 37.058 4.20681C36.8737 4.02303 36.6237 3.91979 36.363 3.91979ZM13.3495 11.4654C13.1925 11.4637 13.0374 11.4996 12.8972 11.5699C12.757 11.6402 12.6357 11.743 12.5436 11.8697C12.4514 11.9963 12.3909 12.1431 12.3673 12.2978C12.3437 12.4526 12.3576 12.6106 12.4078 12.7589C12.6123 13.3704 12.9032 13.9388 13.2295 14.4836C12.0988 14.3224 10.9497 14.3409 9.82478 14.5385C9.56827 14.5853 9.34091 14.7317 9.19271 14.9456C9.0445 15.1596 8.98761 15.4234 9.03453 15.6791C9.08145 15.9349 9.22835 16.1616 9.44291 16.3093C9.65747 16.4571 9.92211 16.5138 10.1786 16.467C12.2457 16.0871 14.3809 16.4533 16.2018 17.4999C16.2192 17.5109 16.2369 17.5213 16.2549 17.5312C16.2614 17.5339 16.268 17.5365 16.2746 17.5391C16.2926 17.5488 16.311 17.5579 16.3296 17.5665C16.3368 17.5692 16.344 17.5718 16.3512 17.5744C16.3777 17.584 16.4046 17.5925 16.4318 17.5998C16.437 17.6012 16.4423 17.6025 16.4475 17.6038C16.4703 17.6098 16.4932 17.615 16.5163 17.6194C16.5572 17.6286 16.5985 17.6351 16.6402 17.639C16.762 17.6458 16.884 17.6298 16.9999 17.592C17.0091 17.5895 17.0183 17.5869 17.0275 17.5842C17.0804 17.5657 17.1317 17.5428 17.1808 17.5156C17.1887 17.5117 17.1966 17.5078 17.2044 17.5038C17.253 17.4751 17.299 17.4424 17.342 17.4058C17.3499 17.3994 17.3578 17.3929 17.3656 17.3862C17.3826 17.3698 17.399 17.3528 17.4147 17.3353C17.4214 17.3288 17.4279 17.3223 17.4344 17.3157C17.4708 17.2741 17.5037 17.2295 17.5327 17.1824C17.5387 17.1753 17.5446 17.1681 17.5504 17.1608C17.5623 17.1403 17.5734 17.1194 17.5838 17.0981C17.5878 17.091 17.5917 17.0838 17.5956 17.0765C17.6199 17.0248 17.6396 16.971 17.6545 16.9158C17.6566 16.908 17.6586 16.9002 17.6604 16.8923C17.6666 16.8684 17.6718 16.8442 17.6762 16.8198C17.6776 16.8107 17.6789 16.8015 17.6801 16.7924C17.6876 16.7365 17.6902 16.6801 17.688 16.6238C17.6881 16.6147 17.6881 16.6055 17.688 16.5964C17.6862 16.5721 17.6836 16.5479 17.6801 16.5239C17.6789 16.5167 17.6776 16.5095 17.6762 16.5023C17.6619 16.4135 17.6354 16.3271 17.5975 16.2456C17.5931 16.2377 17.5885 16.2298 17.5838 16.222C17.5734 16.2001 17.5623 16.1785 17.5504 16.1574C17.5465 16.1508 17.5426 16.1442 17.5386 16.1378C17.5249 16.117 17.5105 16.0967 17.4953 16.077C17.4908 16.0704 17.4862 16.0639 17.4816 16.0574C17.4666 16.0372 17.4508 16.0176 17.4344 15.9986C17.4292 15.9927 17.424 15.9868 17.4186 15.981C17.4016 15.964 17.3839 15.9476 17.3656 15.932C17.3591 15.9267 17.3525 15.9214 17.3459 15.9163C17.3269 15.8999 17.3072 15.8842 17.2869 15.8693C17.2811 15.8646 17.2752 15.86 17.2692 15.8555C17.2494 15.8417 17.2291 15.8286 17.2083 15.8163C15.8264 14.973 14.7876 13.6701 14.2753 12.1376C14.2112 11.9428 14.0873 11.7729 13.9212 11.652C13.7551 11.531 13.5551 11.4651 13.3495 11.4634V11.4654ZM43.6502 11.4654C43.4451 11.4673 43.2458 11.5332 43.0801 11.6537C42.9144 11.7743 42.7907 11.9435 42.7263 12.1376C42.2135 13.6704 41.174 14.9734 39.7914 15.8163C39.7821 15.8227 39.7729 15.8292 39.7638 15.8359C39.7526 15.8422 39.7414 15.8488 39.7304 15.8555C39.7238 15.86 39.7173 15.8646 39.7108 15.8693C39.6905 15.8842 39.6708 15.8999 39.6518 15.9163C39.6404 15.9258 39.6293 15.9356 39.6184 15.9457C39.6049 15.9571 39.5918 15.9689 39.5791 15.981C39.5744 15.9874 39.5698 15.994 39.5653 16.0006C39.5488 16.0196 39.5331 16.0392 39.5181 16.0594C39.5045 16.0759 39.4913 16.0929 39.4788 16.1103C39.472 16.1232 39.4654 16.1363 39.4591 16.1495C39.4482 16.1655 39.4377 16.1819 39.4277 16.1985C39.4222 16.2102 39.417 16.2219 39.412 16.2338C39.408 16.2403 39.404 16.2468 39.4002 16.2534C39.3619 16.3362 39.3355 16.4239 39.3215 16.5141C39.3206 16.5271 39.32 16.5402 39.3196 16.5533C39.3166 16.5682 39.314 16.5832 39.3117 16.5983C39.3116 16.6068 39.3116 16.6153 39.3117 16.6238C39.3098 16.6855 39.3138 16.7471 39.3235 16.808C39.3259 16.8212 39.3285 16.8342 39.3314 16.8472C39.3336 16.8623 39.3363 16.8774 39.3392 16.8923C39.3418 16.9002 39.3444 16.908 39.3471 16.9158C39.363 16.9766 39.3847 17.0356 39.412 17.0922C39.4183 17.1021 39.4249 17.1119 39.4316 17.1216C39.4379 17.1348 39.4444 17.1479 39.4513 17.1608C39.4558 17.1681 39.4604 17.1753 39.465 17.1824C39.4939 17.2302 39.5268 17.2754 39.5633 17.3176C39.5698 17.3242 39.5763 17.3308 39.583 17.3372C39.5994 17.3542 39.6165 17.3705 39.6341 17.3862C39.6419 17.3929 39.6497 17.3994 39.6577 17.4058C39.7006 17.4424 39.7467 17.4751 39.7953 17.5038C39.8031 17.5078 39.811 17.5117 39.8189 17.5156C39.8776 17.5479 39.9395 17.5742 40.0037 17.594C40.1185 17.6306 40.2391 17.6459 40.3595 17.639C40.4011 17.6351 40.4425 17.6286 40.4833 17.6194C40.5064 17.615 40.5294 17.6098 40.5521 17.6038C40.5613 17.6013 40.5705 17.5987 40.5796 17.5959C40.6028 17.5896 40.6258 17.5824 40.6484 17.5744C40.6557 17.5718 40.6629 17.5692 40.6701 17.5665C40.6927 17.5569 40.715 17.5464 40.7369 17.5352C40.7442 17.5313 40.7514 17.5274 40.7585 17.5234C40.7718 17.5159 40.7849 17.508 40.7979 17.4999L40.8136 17.494C40.8162 17.4927 40.8188 17.4914 40.8214 17.4901C42.637 16.4522 44.7628 16.0898 46.821 16.467C46.9481 16.4902 47.0784 16.4882 47.2046 16.4611C47.3309 16.4341 47.4505 16.3825 47.5568 16.3093C47.663 16.2362 47.7537 16.1429 47.8238 16.0347C47.8939 15.9266 47.9419 15.8058 47.9651 15.6791C47.9884 15.5525 47.9864 15.4226 47.9592 15.2967C47.9321 15.1709 47.8803 15.0516 47.807 14.9456C47.7336 14.8397 47.64 14.7492 47.5315 14.6794C47.4231 14.6095 47.3019 14.5617 47.1749 14.5385C46.05 14.3409 44.9008 14.3224 43.7701 14.4836C44.0965 13.9388 44.3874 13.3704 44.5918 12.7589C44.6421 12.6106 44.656 12.4526 44.6324 12.2978C44.6087 12.1431 44.5483 11.9963 44.4561 11.8697C44.3639 11.743 44.2426 11.6402 44.1024 11.5699C43.9622 11.4996 43.8072 11.4637 43.6502 11.4654ZM21.6333 15.1774C21.4629 15.184 21.2971 15.2346 21.1523 15.3244C21.0074 15.4142 20.8885 15.54 20.8072 15.6895C20.7259 15.8389 20.685 16.0069 20.6885 16.1769C20.692 16.3469 20.7399 16.5131 20.8273 16.6591C21.4781 17.78 21.7392 19.0839 21.57 20.368C21.4007 21.6521 20.8107 22.8445 19.8916 23.7598C19.7977 23.8502 19.7229 23.9583 19.6713 24.0779C19.6198 24.1974 19.5927 24.326 19.5916 24.4561C19.5905 24.5863 19.6153 24.7153 19.6647 24.8357C19.7142 24.9562 19.7871 25.0656 19.8794 25.1576C19.9717 25.2496 20.0815 25.3223 20.2023 25.3716C20.3231 25.4209 20.4525 25.4457 20.583 25.4446C20.7135 25.4434 20.8425 25.4164 20.9624 25.365C21.0823 25.3137 21.1908 25.239 21.2814 25.1454C22.5045 23.924 23.2899 22.3349 23.5162 20.6238C23.7426 18.9127 23.3973 17.1749 22.5336 15.6791C22.4451 15.5209 22.3142 15.3902 22.1556 15.3016C21.997 15.213 21.8169 15.17 21.6353 15.1774H21.6333ZM35.2641 15.1774C35.0996 15.1876 34.9402 15.2389 34.8007 15.3266C34.6613 15.4142 34.5462 15.5355 34.466 15.6791C33.6024 17.1749 33.2571 18.9127 33.4834 20.6238C33.7098 22.3349 34.4952 23.924 35.7182 25.1454C35.8089 25.239 35.9174 25.3137 36.0373 25.365C36.1572 25.4164 36.2862 25.4434 36.4167 25.4446C36.5472 25.4457 36.6766 25.4209 36.7974 25.3716C36.9182 25.3223 37.0279 25.2496 37.1202 25.1576C37.2125 25.0656 37.2855 24.9562 37.3349 24.8357C37.3843 24.7153 37.4092 24.5863 37.4081 24.4561C37.4069 24.326 37.3798 24.1974 37.3283 24.0779C37.2768 23.9583 37.2019 23.8502 37.1081 23.7598C36.1886 22.8447 35.5982 21.6525 35.4287 20.3683C35.2591 19.0842 35.5198 17.7802 36.1704 16.6591C36.2578 16.5131 36.3057 16.3469 36.3092 16.1769C36.3127 16.0069 36.2718 15.8389 36.1905 15.6895C36.1092 15.54 35.9903 15.4142 35.8454 15.3244C35.7006 15.2346 35.5348 15.184 35.3644 15.1774C35.3316 15.1758 35.2969 15.1758 35.2641 15.1774ZM5.16585 24.2988C5.13304 24.2984 5.10023 24.2997 5.06756 24.3027C4.92249 24.314 4.78175 24.3573 4.6555 24.4294C4.52925 24.5015 4.42064 24.6007 4.33751 24.7198C4.25438 24.8389 4.19881 24.9749 4.1748 25.1179C4.15079 25.261 4.15894 25.4076 4.19867 25.5472C4.55569 26.8775 5.25736 28.0907 6.23327 29.0652C6.32394 29.1588 6.4324 29.2335 6.55232 29.2848C6.67223 29.3362 6.80121 29.3632 6.93172 29.3643C7.06223 29.3655 7.19165 29.3407 7.31245 29.2914C7.43324 29.2421 7.54298 29.1694 7.63527 29.0774C7.72756 28.9853 7.80054 28.8759 7.84996 28.7555C7.89938 28.6351 7.92425 28.506 7.92312 28.3759C7.92198 28.2458 7.89487 28.1172 7.84336 27.9977C7.79184 27.8781 7.71697 27.77 7.62309 27.6796C6.89066 26.949 6.36389 26.0393 6.09567 25.0416C6.04364 24.8333 5.92449 24.6479 5.75652 24.5137C5.58854 24.3795 5.38103 24.304 5.16585 24.2988ZM51.8378 24.2988C51.6223 24.3041 51.4146 24.3799 51.2466 24.5144C51.0786 24.649 50.9596 24.8349 50.9079 25.0435C50.6394 26.0405 50.1126 26.9496 49.3805 27.6796C49.2866 27.77 49.2118 27.8781 49.1602 27.9977C49.1087 28.1172 49.0816 28.2458 49.0805 28.3759C49.0793 28.506 49.1042 28.6351 49.1536 28.7555C49.2031 28.8759 49.276 28.9853 49.3683 29.0774C49.4606 29.1694 49.5704 29.2421 49.6912 29.2914C49.8119 29.3407 49.9414 29.3655 50.0719 29.3643C50.2024 29.3632 50.3314 29.3362 50.4513 29.2848C50.5712 29.2335 50.6797 29.1588 50.7703 29.0652C51.7462 28.0907 52.4479 26.8775 52.8049 25.5472C52.8446 25.4078 52.8528 25.2613 52.8289 25.1184C52.805 24.9754 52.7496 24.8395 52.6667 24.7205C52.5838 24.6015 52.4754 24.5022 52.3494 24.43C52.2234 24.3577 52.0829 24.3143 51.938 24.3027C51.9053 24.2997 51.8706 24.2984 51.8378 24.2988ZM18.6787 33.3201C18.5891 33.3191 18.4999 33.3303 18.4133 33.3535H18.4094C18.4015 33.356 18.3936 33.3586 18.3858 33.3613C18.3626 33.3683 18.3396 33.3761 18.317 33.3848C18.2681 33.4039 18.2207 33.4268 18.1755 33.4534C18.1729 33.4547 18.1702 33.456 18.1676 33.4573C16.3467 34.504 14.2115 34.8701 12.1444 34.4902C11.8871 34.4434 11.6217 34.5005 11.4066 34.6488C11.1915 34.7971 11.0443 35.0245 10.9974 35.281C10.9505 35.5375 11.0077 35.8021 11.1564 36.0166C11.3052 36.2311 11.5333 36.3778 11.7906 36.4246C12.9248 36.6324 14.0709 36.6245 15.1953 36.4736C14.8591 37.019 14.5836 37.5993 14.3736 38.2042C14.3328 38.3264 14.3166 38.4555 14.3258 38.584C14.3351 38.7125 14.3696 38.838 14.4275 38.9532C14.4854 39.0684 14.5654 39.1711 14.6631 39.2554C14.7608 39.3398 14.8742 39.4041 14.9968 39.4448C15.2444 39.5269 15.5147 39.5076 15.748 39.3911C15.9814 39.2746 16.1588 39.0704 16.2411 38.8235C16.7503 37.3007 17.7804 36.0013 19.1505 35.1585C19.1558 35.154 19.161 35.1494 19.1662 35.1448C19.1662 35.1448 19.1721 35.1448 19.1741 35.1409C19.1949 35.1286 19.2152 35.1155 19.235 35.1017C19.2416 35.0972 19.2482 35.0926 19.2547 35.088C19.2749 35.0737 19.2946 35.0587 19.3137 35.0429C19.3196 35.0377 19.3255 35.0325 19.3314 35.0272C19.3497 35.0109 19.3674 34.9939 19.3844 34.9762L19.3884 34.9723C19.5197 34.8334 19.6075 34.6593 19.641 34.4714C19.6745 34.2834 19.6521 34.0898 19.5768 33.9143C19.5014 33.7388 19.3763 33.5891 19.2167 33.4836C19.0572 33.378 18.8702 33.3212 18.6787 33.3201ZM38.2777 33.3201C38.0897 33.3289 37.9082 33.3912 37.7548 33.4998C37.6013 33.6083 37.4823 33.7585 37.4119 33.9325C37.3415 34.1065 37.3227 34.2969 37.3577 34.4813C37.3927 34.6656 37.48 34.836 37.6093 34.9723C37.6113 34.9736 37.6133 34.9749 37.6152 34.9762C37.6217 34.9816 37.6283 34.9868 37.6349 34.9919C37.6691 35.0273 37.7059 35.0601 37.745 35.0899C37.7735 35.1098 37.803 35.1281 37.8334 35.1448C39.2118 35.9901 40.2475 37.2926 40.7585 38.8235C40.7993 38.9458 40.8639 39.0588 40.9485 39.1562C41.0331 39.2536 41.1361 39.3334 41.2516 39.3911C41.3672 39.4488 41.493 39.4832 41.6219 39.4924C41.7508 39.5017 41.8803 39.4855 42.0029 39.4448C42.1255 39.4041 42.2389 39.3398 42.3366 39.2554C42.4342 39.1711 42.5143 39.0684 42.5722 38.9532C42.63 38.838 42.6646 38.7125 42.6738 38.584C42.6831 38.4555 42.6668 38.3264 42.626 38.2042C42.4161 37.5993 42.1406 37.019 41.8043 36.4736C42.9288 36.6245 44.0748 36.6304 45.2091 36.4246C45.3365 36.4015 45.4581 36.3535 45.5669 36.2835C45.6757 36.2135 45.7696 36.1228 45.8433 36.0166C45.9169 35.9104 45.9689 35.7908 45.9961 35.6646C46.0234 35.5384 46.0255 35.408 46.0023 35.281C45.9791 35.154 45.931 35.0328 45.8607 34.9243C45.7905 34.8158 45.6996 34.7222 45.593 34.6488C45.4865 34.5753 45.3666 34.5235 45.24 34.4963C45.1134 34.4691 44.9826 34.467 44.8552 34.4902C42.7882 34.8701 40.653 34.504 38.8321 33.4573C38.8294 33.456 38.8268 33.4547 38.8242 33.4534C38.7789 33.4268 38.7316 33.4039 38.6827 33.3848C38.66 33.3761 38.6371 33.3683 38.6138 33.3613C38.6047 33.3586 38.5955 33.3559 38.5863 33.3535H38.5824C38.5206 33.3376 38.4574 33.3277 38.3937 33.3241C38.3558 33.3206 38.3158 33.3192 38.2777 33.3201ZM24.5525 39.1881C24.2925 39.1922 24.0448 39.2989 23.8635 39.4847C23.6822 39.6706 23.5822 39.9205 23.5853 40.1798C23.5853 41.8143 22.2761 43.1196 20.6367 43.1196C20.376 43.1196 20.126 43.2229 19.9416 43.4066C19.7573 43.5904 19.6538 43.8397 19.6538 44.0996C19.6538 44.3595 19.7573 44.6087 19.9416 44.7925C20.126 44.9763 20.376 45.0795 20.6367 45.0795C23.3396 45.0795 25.5511 42.8746 25.5511 40.1798C25.5527 40.0488 25.528 39.9188 25.4783 39.7975C25.4286 39.6762 25.3551 39.566 25.262 39.4736C25.1689 39.3811 25.0581 39.3082 24.9362 39.2592C24.8144 39.2101 24.6839 39.186 24.5525 39.1881ZM32.3508 39.1881C32.1023 39.2084 31.8708 39.3222 31.7033 39.5063C31.5358 39.6905 31.4447 39.9312 31.4485 40.1798C31.4485 42.8746 33.66 45.0795 36.363 45.0795C36.6237 45.0795 36.8737 44.9763 37.058 44.7925C37.2424 44.6087 37.3459 44.3595 37.3459 44.0996C37.3459 43.8397 37.2424 43.5904 37.058 43.4066C36.8737 43.2229 36.6237 43.1196 36.363 43.1196C34.7235 43.1196 33.4143 41.8143 33.4143 40.1798C33.4175 39.9205 33.3175 39.6706 33.1362 39.4847C32.9549 39.2989 32.7072 39.1922 32.4472 39.1881C32.4151 39.1865 32.3829 39.1865 32.3508 39.1881Z" fill="url(#paint0_linear_2_11)"/>
<defs>
<linearGradient id="paint0_linear_2_11" x1="-0.00223041" y1="24.4987" x2="53.0723" y2="24.4987" gradientUnits="userSpaceOnUse">
<stop stop-color="#000092"/>
<stop offset="1" stop-color="#FF00F3"/>
</linearGradient>
</defs>
</svg>
